<?xml version="1.0" encoding="utf-8"?>
<!-- Generator: Adobe Illustrator 24.0.1, SVG Export Plug-In . SVG Version: 6.00 Build 0)  -->
<svg version="1.1" id="Capa_1" xmlns="http://www.w3.org/2000/svg" xmlns:xlink="http://www.w3.org/1999/xlink" x="0px" y="0px"
	 viewBox="0 0 512 512" style="enable-background:new 0 0 512 512;" xml:space="preserve">
<style type="text/css">
	.st0{fill:#FFFFFF;}
</style>
<g>
	<g>
		<path class="st0" d="M264.6,2.9c-1.9-1.9-4.4-2.9-7.1-2.9s-5.2,1.1-7.1,2.9s-2.9,4.4-2.9,7.1s1.1,5.2,2.9,7.1
			c1.9,1.9,4.4,2.9,7.1,2.9s5.2-1.1,7.1-2.9c1.9-1.9,2.9-4.4,2.9-7.1S266.5,4.8,264.6,2.9z"/>
	</g>
</g>
<g>
	<g>
		<path class="st0" d="M492,96.6V68.5c0-15.2-12.3-27.5-27.5-27.5h-17.4C442.9,17.7,422.5,0,398,0h-97.6c-5.5,0-10,4.5-10,10
			s4.5,10,10,10H398c16.5,0,30,13.5,30,30v30h-96V50c0-5.5-4.5-10-10-10H190c-5.5,0-10,4.5-10,10v30H84.1V50c0-16.5,13.5-30,30-30
			h100.4c5.5,0,10-4.5,10-10s-4.5-10-10-10H114.1C89.6,0,69.2,17.7,65,41H47.5C32.3,41,20,53.3,20,68.5v28.2
			c-11.6,4.1-20,15.2-20,28.3v37.4c0,16.5,13.5,30,30,30s30-13.5,30-30v-37.4c0-13-8.4-24.2-20-28.3V68.5c0-4.1,3.4-7.5,7.5-7.5
			h16.6v332c0,20.1,11.9,37.4,29,45.4V474c0,21,17,38,38,38s38-17,38-38v-31h173.9v31c0,21,17,38,38,38s38-17,38-38v-35.7
			c17-8,28.9-25.3,28.9-45.3V61h16.5c4.1,0,7.5,3.4,7.5,7.5v28.2c-11.6,4.1-20,15.2-20,28.3v37.4c0,16.5,13.5,30,30,30
			s30-13.5,30-30v-37.4C512,111.9,503.6,100.8,492,96.6z M40,162.3c0,5.5-4.5,10-10,10s-10-4.5-10-10v-37.4c0-5.5,4.5-10,10-10
			s10,4.5,10,10V162.3z M326.6,100l-31.2,31.2c-3.9,3.9-3.9,10.2,0,14.1c2,2,4.5,2.9,7.1,2.9s5.1-1,7.1-2.9l45.3-45.3h58.8
			L266,247.8V100H326.6z M200,60h112v20H200V60z M203.3,234.6c-3.9-3.9-10.2-3.9-14.1,0L127,296.8h-6.4l-30.9-30.9L246,109.5v187.3
			h-90.7l48-48C207.2,244.8,207.2,238.5,203.3,234.6z M84.1,100h143.1L84.1,243.1V100z M149.2,474c0,9.9-8.1,18-18,18s-18-8.1-18-18
			v-31h1h35V474z M399.1,474c0,9.9-8.1,18-18,18s-18-8.1-18-18v-31H398h1.1V474z M428,393c0,16.5-13.5,30-30,30H114.1
			c-16.5,0-30-13.5-30-30V288.6l25.2,25.2c1.9,1.9,4.4,2.9,7.1,2.9h279.1c2.7,0,5.2-1.1,7.1-2.9l25.3-25.3V393z M428,260.2
			l-36.5,36.5H266V276l162-162V260.2z M492,162.3c0,5.5-4.5,10-10,10s-10-4.5-10-10v-37.4c0-5.5,4.5-10,10-10s10,4.5,10,10V162.3z"
			/>
	</g>
</g>
<g>
	<g>
		<path class="st0" d="M140,339.9c-16.5,0-30,13.5-30,30s13.5,30,30,30s30-13.5,30-30S156.6,339.9,140,339.9z M140,379.9
			c-5.5,0-10-4.5-10-10s4.5-10,10-10s10,4.5,10,10S145.6,379.9,140,379.9z"/>
	</g>
</g>
<g>
	<g>
		<path class="st0" d="M372,339.9c-16.5,0-30,13.5-30,30s13.5,30,30,30s30-13.5,30-30S388.5,339.9,372,339.9z M372,379.9
			c-5.5,0-10-4.5-10-10s4.5-10,10-10s10,4.5,10,10S377.5,379.9,372,379.9z"/>
	</g>
</g>
<g>
	<g>
		<path class="st0" d="M308.1,339.9h-104c-5.5,0-10,4.5-10,10v40c0,5.5,4.5,10,10,10h104c5.5,0,10-4.5,10-10v-40
			C318.1,344.4,313.6,339.9,308.1,339.9z M298.1,379.9h-84v-20h84V379.9z"/>
	</g>
</g>
</svg>
