<?xml version="1.0" encoding="utf-8"?>
<!-- Generator: Adobe Illustrator 24.0.1, SVG Export Plug-In . SVG Version: 6.00 Build 0)  -->
<svg version="1.1" id="Layer_1" xmlns="http://www.w3.org/2000/svg" xmlns:xlink="http://www.w3.org/1999/xlink" x="0px" y="0px"
	 viewBox="0 0 511 511" style="enable-background:new 0 0 511 511;" xml:space="preserve">
<style type="text/css">
	.st0{fill:#FFFFFF;}
</style>
<path class="st0" d="M243.5,281.5h12.2c4.1,0,7.5-3.3,7.5-7.5c0-4.1-3.3-7.5-7.5-7.5h-10.4v-18.2c0-4.1-3.4-7.5-7.5-7.5
	c-4.1,0-7.5,3.3-7.5,7.5v20C230.3,275.6,236.2,281.5,243.5,281.5z"/>
<path class="st0" d="M216.8,225.3c-2.9-2.9-7.7-2.9-10.6,0c-9.9,9.8-25.9,9.8-35.8,0c-2.9-2.9-7.7-2.9-10.6,0
	c-2.9,2.9-2.9,7.7,0,10.6c7.8,7.8,18.1,11.7,28.4,11.7s20.6-3.9,28.4-11.7C219.7,233,219.7,228.2,216.8,225.3z"/>
<path class="st0" d="M305.2,247.6c10.3,0,20.6-3.9,28.4-11.7c2.9-2.9,2.9-7.7,0-10.6s-7.7-2.9-10.6,0c-9.9,9.8-25.9,9.8-35.8,0
	c-2.9-2.9-7.7-2.9-10.6,0c-2.9,2.9-2.9,7.7,0,10.6C284.6,243.7,294.9,247.6,305.2,247.6z"/>
<path class="st0" d="M207.1,298.1c-2.9,2.9-2.9,7.7,0,10.6c10.9,10.8,25.1,16.2,39.4,16.2c14.4,0,28.8-5.5,39.8-16.4
	c2.9-2.9,2.9-7.7,0-10.6c-2.9-2.9-7.7-2.9-10.6,0c-16.1,16-42.2,16.1-58.1,0.2C214.7,295.2,210,295.2,207.1,298.1z"/>
<path class="st0" d="M414.6,180.5c12.8,5.1,15.8,8,20.9,20.9c1.6,4,5.4,6.6,9.7,6.6c4.3,0,8.1-2.6,9.7-6.6
	c5.1-12.8,8-15.8,20.9-20.9c4-1.6,6.6-5.4,6.6-9.7c0-4.3-2.6-8.1-6.6-9.7c-12.8-5.1-15.8-8-20.9-20.9c-1.6-4-5.4-6.5-9.7-6.5
	c-4.3,0-8.1,2.6-9.7,6.6c-5.1,12.8-8,15.8-20.9,20.9c-4,1.6-6.6,5.4-6.6,9.7C408,175.2,410.6,178.9,414.6,180.5z M445.1,155.2
	c3.9,7.2,8.5,11.8,15.7,15.7c-7.2,3.9-11.8,8.5-15.7,15.7c-3.9-7.2-8.5-11.8-15.7-15.7C436.6,166.9,441.2,162.4,445.1,155.2z"/>
<path class="st0" d="M31.4,180.8c12.8,5.1,15.8,8,20.9,20.9c1.6,4,5.4,6.6,9.7,6.6c4.3,0,8.1-2.6,9.7-6.6c5.1-12.8,8-15.8,20.9-20.9
	c4-1.6,6.6-5.4,6.6-9.7s-2.6-8.1-6.6-9.7c-12.8-5.1-15.8-8-20.9-20.9c-1.6-4-5.4-6.6-9.7-6.6c-4.3,0-8.1,2.6-9.7,6.6
	c-5.1,12.8-8,15.8-20.9,20.9c-4,1.6-6.6,5.4-6.6,9.7S27.4,179.2,31.4,180.8z M61.9,155.5c3.9,7.2,8.5,11.8,15.7,15.7
	c-7.2,3.9-11.8,8.5-15.7,15.7c-3.9-7.2-8.5-11.8-15.7-15.7C53.4,167.2,58,162.7,61.9,155.5z"/>
<path class="st0" d="M79.4,66.7c10,4,12.1,6.1,16.1,16.1c1.5,3.8,5.1,6.2,9.2,6.2c4.1,0,7.6-2.4,9.1-6.2c4-10,6.1-12.1,16.1-16.1
	c3.8-1.5,6.2-5.1,6.2-9.2c0-4.1-2.4-7.6-6.2-9.2c-10-4-12.1-6.1-16.1-16.1c-1.5-3.8-5.1-6.2-9.2-6.2c-4.1,0-7.7,2.4-9.2,6.2
	c-4,10-6.1,12.1-16.1,16.1c-3.8,1.5-6.2,5.1-6.2,9.1C73.2,61.6,75.7,65.2,79.4,66.7z M104.7,47.7c2.6,4.2,5.7,7.3,9.9,9.9
	c-4.2,2.6-7.3,5.7-9.9,9.9c-2.6-4.2-5.7-7.3-9.9-9.9C99,54.9,102.1,51.9,104.7,47.7z"/>
<path class="st0" d="M507.2,444.3l-4.9-4.8c-2.9-2.9-7.7-2.9-10.6,0c-2.9,2.9-2.9,7.7,0,10.6l3.4,3.4l-33.5,33.3L428,453.3
	c-1.9-1.9-4.7-2.6-7.2-1.9c-3.5,0.9-7,1.4-10.6,1.4c-10.6,0-20.6-4.1-28.1-11.6l-71.8-71.4c-0.6-0.6-0.9-1.3-0.9-2.1
	c0-0.8,0.3-1.5,0.9-2.1c1.2-1.2,3.2-1.2,4.4,0l40.7,40.4c2.9,2.9,7.6,2.9,10.6,0l6.1-6.1c1.4-1.4,2.2-3.3,2.2-5.3
	c0-2-0.8-3.9-2.2-5.3l-54.2-53.9c-0.6-0.6-0.9-1.3-0.9-2.1s0.3-1.5,0.9-2.1c1.2-1.2,3.2-1.2,4.4,0l54.2,53.9c2.9,2.9,7.6,2.9,10.6,0
	l6.1-6.1c1.4-1.4,2.2-3.3,2.2-5.3c0-2-0.8-3.9-2.2-5.3l-54.2-53.9c-0.6-0.6-0.9-1.3-0.9-2.1c0-0.8,0.3-1.5,0.9-2.1
	c1.2-1.2,3.2-1.2,4.4,0l54.2,53.9c2.9,2.9,7.6,2.9,10.6,0l6.1-6.1c1.4-1.4,2.2-3.3,2.2-5.3c0-2-0.8-3.9-2.2-5.3l-40.7-40.4
	c-0.6-0.6-0.9-1.3-0.9-2.1c0-0.8,0.3-1.5,0.9-2.1c1.2-1.2,3.2-1.2,4.4,0l52.2,51.9c2.1,2.1,5.4,2.8,8.2,1.6c2.8-1.2,4.6-3.9,4.6-6.9
	v-18.7c0-3.1,2.6-5.7,5.8-5.7c3.2,0,5.8,2.6,5.8,5.7v47c0,1.4,0.4,2.7,1.1,3.9c5.7,9.2,7.3,20.6,4.4,31.1c-0.7,2.6,0,5.4,1.9,7.3
	l5.2,5.2c2.9,2.9,7.7,2.9,10.6,0c2.9-2.9,2.9-7.7,0-10.6l-2.3-2.3c2.4-12.5,0.2-25.5-6-36.6v-44.9c0-11.4-9.3-20.7-20.8-20.7
	c-11.4,0-20.7,9.3-20.8,20.7v0.7l-23.9-23.7c0.4-2.6,0.6-5.3,0.6-8c0-9-2.3-17.5-6.4-24.9c2.5-4.2,4-9,4-14.2v-24.5
	c0-10.7-6.2-20-15.2-24.6v-29.2c0-36.6-14.4-67.6-41.6-89.7c-6.8-5.5-14.4-10.4-22.5-14.5C318.8,40,286.2,10,246.7,10
	c-39.5,0-72.1,30-75.9,68.3c-8.1,4.1-15.7,9-22.5,14.5c-27.2,22-41.6,53-41.6,89.7v29.2c-9,4.6-15.2,13.9-15.2,24.6v24.5
	c0,7.8,3.3,14.9,8.6,19.9l-2.6,39.8c-2.5,0.4-4.8,1.6-6.6,3.4l-10,9.9c-2.4,2.4-3.7,5.5-3.7,8.8c0,3,1,5.7,2.9,8L4.8,433.5
	c-3.1,3.2-4.8,7.3-4.8,11.8c0,4.5,1.8,8.7,5,11.9c3.2,3.2,7.4,4.9,11.9,4.9c4.4,0,8.6-1.7,11.8-4.8l83.4-74.9c2.3,1.9,5.1,3,8.1,3
	c3.3,0,6.5-1.3,8.8-3.6l10-9.9c1.8-1.8,3-4.1,3.5-6.5l43.3-2.8c1.2-0.1,2.4-0.3,3.6-0.7c6.4,3,13.2,5.3,20.2,7v13.9h-49.9
	c-44.8,0-81.2,36.2-81.2,80.8v26.6c0,7,5.7,12.7,12.7,12.7h311.3c7,0,12.7-5.7,12.7-12.7v-22.3c1.8-0.2,3.5-0.4,5.3-0.7l32.2,32
	c2.4,2.4,5.7,3.8,9.1,3.8c3.4,0,6.7-1.3,9.1-3.8l36.4-36.2c2.4-2.4,3.8-5.8,3.8-9.2C511,450,509.6,446.7,507.2,444.3z M284,368.6
	c3.6-0.8,7.1-1.9,10.5-3.1c-0.1,0.7-0.1,1.5-0.1,2.2c0,4.8,1.9,9.3,5.3,12.7l2,2H284V368.6z M388.2,292.4c-3.4-3.4-7.9-5.2-12.7-5.2
	c-4.8,0-9.3,1.9-12.7,5.3c-3.1,3.1-4.9,7-5.2,11.3l-3.9-3.8c-3.4-3.4-7.9-5.3-12.7-5.3c-4.8,0-9.3,1.9-12.7,5.3
	c-3.4,3.4-5.3,7.9-5.3,12.7c0,1.1,0.1,2.2,0.3,3.2c-1.1-0.2-2.2-0.3-3.3-0.3c-0.6,0-1.1,0-1.7,0.1c-2.3-4.8-3.5-10.1-3.5-15.7
	c0-20.5,16.8-37.1,37.4-37.1c18.2,0,33.4,13,36.7,30.2L388.2,292.4z M387,260.7c0,0.1,0,0.2,0,0.3c-6.1-5.5-13.6-9.6-21.8-11.7
	v-25.9h8.7c7.2,0,13.1,5.7,13.1,12.7V260.7z M246.7,24.9c28.8,0,52.9,19.8,59.6,46.3c-18.1-6.5-38.3-10-59.6-10s-41.5,3.4-59.6,10
	C193.8,44.7,218,24.9,246.7,24.9z M106.5,236.3c0-7,5.9-12.7,13.1-12.7h8.7v39.7c-6,0.1-12.1,1-18.1,2.5c-0.8,0.2-1.6,0.5-2.3,0.8
	c-0.9-1.7-1.4-3.7-1.4-5.8V236.3z M18.5,446.3c-0.1,0.1-0.2,0.2-0.3,0.3c-0.5,0.5-1,0.6-1.4,0.6c-0.4,0-0.9-0.1-1.4-0.6
	c-0.4-0.4-0.5-0.9-0.5-1.3c0-0.3,0.1-0.8,0.5-1.3c0.1-0.1,0.2-0.2,0.3-0.3l75-82.4l10.6,10.6L18.5,446.3z M120.1,369.4l-26.8-26.7
	l6.5-6.4l26.8,26.7L120.1,369.4z M183.3,347.5l-47.8,3.1l-0.8-0.8l26.8-15.8c3.6-2.1,4.7-6.7,2.6-10.2c-2.1-3.6-6.7-4.7-10.2-2.6
	l-30,17.7l17.8-29.8c2.1-3.6,1-8.1-2.6-10.3c-3.5-2.1-8.1-1-10.3,2.6l-16,26.7l-0.8-0.8l3.1-47.5c5-1.2,10.1-1.7,15-1.7
	c15.3,0,29.2,5.5,39.3,15.5C182.9,307.1,188.1,327.1,183.3,347.5z M180,283.1c-9.9-9.8-22.6-16.3-36.7-18.7v-69.4h29.4
	c4.1,0,7.5-3.3,7.5-7.5c0-4.1-3.3-7.5-7.5-7.5h-30.7c-7.5,0-13.6,6.1-13.6,13.6v15h-6.7v-26.1c0-31.9,12.5-58.9,36.1-78
	c22.4-18.2,54.1-28.2,89-28.2s66.6,10,89,28.2c23.6,19.1,36.1,46.1,36.1,78v26.1h-6.7v-15c0-7.5-6.1-13.6-13.6-13.6h-32.1
	c-13.4,0-26.2-7.1-33.4-18.5c-2.5-4-6.8-6.4-11.6-6.4c-4.7,0-9.1,2.4-11.6,6.4c-7.2,11.4-20,18.5-33.4,18.5h-21.9
	c-4.1,0-7.5,3.3-7.5,7.5c0,4.1,3.4,7.5,7.5,7.5h21.9c17.9,0,34.9-9.1,45-23.8c10.1,14.7,27.1,23.8,45,23.8h30.8v52.9
	c-28,1-50.5,23.9-50.5,52c0,8.3,2,16.2,5.5,23.2c-2.2,3-3.3,6.6-3.3,10.4c0,3.9,1.3,7.7,3.6,10.7c-13.4,7.8-29.1,12.3-45.8,12.3
	h-25.8c-12.6,0-24.6-2.6-35.6-7.2C203.5,324.3,196.8,299.8,180,283.1z M209.8,397.5c8,0,14.6-6.5,14.6-14.5V371
	c3.1,0.3,6.2,0.4,9.4,0.4h25.8c3.2,0,6.3-0.1,9.4-0.4V383c0,8,6.5,14.5,14.6,14.5h1.8l-38.7,59.2l-38.7-59.2H209.8z M93.3,487.6
	v-24.3c0-36.3,29.7-65.8,66.2-65.8h0.8l58.9,90.1H93.3z M274.2,487.6L291,462c2.3-3.5,1.3-8.1-2.2-10.4c-3.5-2.3-8.1-1.3-10.4,2.2
	l-17.1,26.2c-2.7,4.1-6.9,6.8-11.7,7.7h-5.9c-4.8-0.8-9-3.6-11.6-7.7l-53.9-82.5h11.9l50.3,77c1.4,2.1,3.7,3.4,6.3,3.4
	c2.5,0,4.9-1.3,6.3-3.4l50.3-77h11.9l-17.9,27.3c-2.3,3.5-1.3,8.1,2.2,10.4c3.5,2.3,8.1,1.3,10.4-2.2l16.8-25.7l44.8,44.5
	c7.9,7.9,17.9,13,28.7,15v20.7H274.2z"/>
</svg>
