<?xml version="1.0" encoding="utf-8"?>
<!-- Generator: Adobe Illustrator 24.0.1, SVG Export Plug-In . SVG Version: 6.00 Build 0)  -->
<svg version="1.1" id="Layer_1" xmlns="http://www.w3.org/2000/svg" xmlns:xlink="http://www.w3.org/1999/xlink" x="0px" y="0px"
	 viewBox="0 0 474 474" style="enable-background:new 0 0 474 474;" xml:space="preserve">
<style type="text/css">
	.st0{fill:#FFFFFF;}
</style>
<path class="st0" d="M395.9,163.7c-34.5,0-62.5,28-62.5,62.5c0,34.5,28,62.5,62.5,62.5c34.5,0,62.5-28,62.5-62.5
	C458.3,191.7,430.4,163.8,395.9,163.7z M395.9,263.7c-20.7,0-37.6-16.8-37.6-37.6c0-20.7,16.8-37.6,37.6-37.6
	c20.7,0,37.6,16.8,37.6,37.6C433.4,246.9,416.6,263.7,395.9,263.7z"/>
<path class="st0" d="M236.2,163.7c-34.5,0-62.5,28-62.5,62.5c0,34.5,28,62.5,62.5,62.5c34.5,0,62.5-28,62.5-62.5
	C298.6,191.7,270.7,163.7,236.2,163.7z M236.2,263.7c-20.7,0-37.6-16.8-37.6-37.6c0-20.7,16.8-37.6,37.6-37.6
	c20.7,0,37.5,16.8,37.5,37.6C273.7,246.9,256.9,263.7,236.2,263.7z"/>
<path class="st0" d="M76.4,163.7c-34.5,0-62.5,28-62.5,62.5c0,34.5,28,62.5,62.5,62.5c34.5,0,62.5-28,62.5-62.5
	C138.8,191.7,110.9,163.8,76.4,163.7z M76.4,263.7c-20.7,0-37.6-16.8-37.6-37.6c0-20.7,16.8-37.6,37.6-37.6s37.5,16.8,37.5,37.6
	C114,246.9,97.2,263.7,76.4,263.7z"/>
</svg>
