<?xml version="1.0" encoding="utf-8"?>
<!-- Generator: Adobe Illustrator 24.0.1, SVG Export Plug-In . SVG Version: 6.00 Build 0)  -->
<svg version="1.1" id="Layer_1" xmlns="http://www.w3.org/2000/svg" xmlns:xlink="http://www.w3.org/1999/xlink" x="0px" y="0px"
	 viewBox="0 0 511 511" style="enable-background:new 0 0 511 511;" xml:space="preserve">
<style type="text/css">
	.st0{fill:#FFFFFF;}
</style>
<path class="st0" d="M199.6,300.7c-20.7,0-37.6,16.8-37.6,37.6c0,20.7,16.8,37.6,37.6,37.6s37.6-16.9,37.6-37.6
	C237.2,317.5,220.3,300.7,199.6,300.7z M199.6,355.9c-9.7,0-17.6-7.9-17.6-17.6c0-9.7,7.9-17.6,17.6-17.6c9.7,0,17.6,7.9,17.6,17.6
	C217.2,348,209.3,355.9,199.6,355.9z"/>
<path class="st0" d="M507.2,133.6c-7-5.5-13.7-9-19.9-11.2c9.1-12.9,14.1-33.2,5.8-63.1c-0.9-3.4-3.6-6-6.9-6.9
	c-29.9-8.4-50.2-3.4-63.1,5.8c-2.2-6.2-5.6-12.9-11.2-19.9c-3-3.8-8.4-4.9-12.7-2.5c-22.2,12.4-30,29.4-31.4,43.4
	c-1.9-0.4-3.9-0.7-6.2-1c-4.9-0.6-9.5,2.4-10.8,7.2c-2.1,7.5-3.5,14.4-4,20.9c-16.6,15.4-38.1,23.8-60.9,23.8h-2.2
	c-5.5,0-10,4.5-10,10c0,5.5,4.5,10,10,10h2.2c11.3,0,22.4-1.7,32.9-5l1.7,1.7c8.3,8.3,13.2,19.2,13.8,30.8
	c-9.6,2.3-18.1,7.7-24.1,15.1c-7.3-8.9-17.9-14.9-30-16.1c-7.9-22.9-24.2-41.7-45.6-52.9V10c0-5.5-4.5-10-10-10h-50.2
	c-5.5,0-10,4.5-10,10v113.7c-31.1,16.2-50.8,48.3-50.8,83.7v4.3H10c-5.5,0-10,4.5-10,10V366c0,33.5,24.8,61.3,56.9,66.2L57,491H41.4
	c-5.5,0-10,4.5-10,10c0,5.5,4.5,10,10,10h51.2c5.5,0,10-4.5,10-10c0-5.5-4.5-10-10-10H76.9l-0.1-58.9c14.3-2.1,27.1-8.8,36.9-18.5
	V501c0,5.5,4.5,10,10,10h151.7c5.5,0,10-4.5,10-10V316.4c5.2,3.6,11.2,6,17.7,7.1c-1.8,4.9-2.9,10.1-2.9,15.6
	c0,24.4,19.8,44.2,44.2,44.2c24.4,0,44.2-19.8,44.2-44.2c0-5.5-1-10.8-2.9-15.6c21-3.4,37.1-21.7,37.1-43.6c0-5.5-1-10.8-2.9-15.7
	c21-3.4,37.1-21.7,37.1-43.6c0-8.6-2.5-16.7-6.8-23.5c3.2-0.6,6.5-1.4,9.8-2.4c4.7-1.4,7.7-5.9,7.2-10.8c-0.3-2.2-0.6-4.3-1-6.2
	c13.9-1.4,31-9.2,43.4-31.4C512.1,142,511.1,136.7,507.2,133.6z M349.5,129.9c1.6,4.6,3.9,8.8,7,12.4c5.6,6.6,12.6,10.5,19.4,12.7
	c-6.9,5.1-14.5,9.1-22.7,11.7c-2.2-11-7.2-21.3-14.6-30C342.3,134.7,345.9,132.4,349.5,129.9z M378.7,192.6
	c-3.2-3.9-7.1-7.3-11.4-9.9c8.3-3.5,16-8.1,23-13.7c0.6,2,1.4,4.1,2.4,6.1c0.8,1.7,1.7,3.3,2.7,4.8
	C388.8,182.9,383.1,187.2,378.7,192.6z M133.8,265.5h131.7V411H133.7L133.8,265.5z M344.5,196.3c13.4,0,24.2,10.9,24.2,24.2
	c0,13.4-10.9,24.2-24.2,24.2c-13.4,0-24.2-10.9-24.2-24.2C320.3,207.2,331.1,196.3,344.5,196.3z M300.3,220.6
	c0,13.4-10.9,24.2-24.2,24.2c-13.4,0-24.2-10.9-24.2-24.2c0-13.4,10.9-24.2,24.2-24.2C289.4,196.3,300.3,207.2,300.3,220.6z
	 M214.7,20v64.4h-30.2V20H214.7z M178.5,139.2c3.6-1.6,6-5.2,6-9.2v-25.6h30.2V130c0,4,2.4,7.6,6,9.2c18,7.8,32,22.3,39.3,40.3
	c-16.4,6.4-28.1,22.5-28.1,41.2c0,9.3,2.9,17.8,7.7,25H133.8v-23.8c0-0.4,0-0.7-0.1-1.1v-13.2C133.7,177.8,151.3,151,178.5,139.2z
	 M113.8,231.7l0.1,60.2H20v-60.2H113.8z M66.9,413C41,413,20,391.9,20,366v-54.1h93.9V358c0,0.3-0.1,0.7-0.1,1.1v9.2
	C112.6,393.1,92,413,66.9,413z M133.7,491V431h131.7v25.1h-52.9c-5.5,0-10,4.5-10,10c0,5.5,4.5,10,10,10h52.9v15H133.7z M286,279.9
	c0-13.4,10.9-24.2,24.2-24.2c13.4,0,24.2,10.9,24.2,24.2c0,13.4-10.9,24.2-24.2,24.2C296.9,304.1,286,293.2,286,279.9z M344.5,363.3
	c-13.4,0-24.2-10.9-24.2-24.2c0-13.4,10.9-24.2,24.2-24.2c13.4,0,24.2,10.9,24.2,24.2C368.7,352.5,357.9,363.3,344.5,363.3z
	 M378.7,304.1c-13.4,0-24.2-10.9-24.2-24.2c0-13.4,10.9-24.2,24.2-24.2c13.4,0,24.2,10.9,24.2,24.2
	C402.9,293.2,392.1,304.1,378.7,304.1z M412.9,244.8c-13.4,0-24.2-10.9-24.2-24.2c0-13.4,10.9-24.2,24.2-24.2
	c13.4,0,24.2,10.9,24.2,24.2C437.1,233.9,426.3,244.8,412.9,244.8z M454.7,157c-4.6-1.7-9.6,0.2-12,4.4c-2.2,3.9-1.5,8.7,1.5,11.9
	c0.2,0.4,0.9,1.7,1.7,4.3c-1,0.2-2.1,0.4-3,0.5c-7.2,1.1-13.4,1-18.4-0.2c-0.2-0.1-0.4-0.1-0.7-0.2c-1.5-0.4-3-1-4.3-1.7
	c-3.9-2-6.7-5.1-8.8-9.4c-3.9-8.3-3.1-17.8-3.1-17.9c0.3-3-0.7-6-2.8-8.1c-1.9-1.9-4.4-2.9-7-2.9c-0.3,0-0.7,0-1,0.1
	c-0.2,0-16.9,1.5-25.1-8.4c-6.1-7.3-5.8-19-3.8-29.7c2.6,0.7,3.9,1.4,4.3,1.7c3.1,3,7.9,3.6,11.7,1.5c4.2-2.4,6.1-7.4,4.5-12
	c0-0.1-1.7-5.4-0.4-12.3c1.4-7.7,5.8-14.5,13.2-20.2c7.1,13.1,4.5,23.1,4.4,23.6c-1.4,5.3,1.6,10.7,6.9,12.2
	c5.3,1.5,10.7-1.5,12.3-6.7c0.9-2.8,9.3-26.5,50.3-17.1c9.4,41.1-14.3,49.5-17.1,50.3c-5.2,1.6-8.2,7.1-6.7,12.3
	c1.5,5.3,7,8.3,12.2,6.9c0.5-0.1,10.5-2.7,23.6,4.4C473.3,162,457,157.7,454.7,157z"/>
<path class="st0" d="M175.7,456.1c-2.6,0-5.2,1.1-7.1,2.9c-1.9,1.9-2.9,4.4-2.9,7.1c0,2.6,1.1,5.2,2.9,7.1c1.9,1.9,4.4,2.9,7.1,2.9
	c2.6,0,5.2-1.1,7.1-2.9c1.9-1.9,2.9-4.4,2.9-7.1c0-2.6-1.1-5.2-2.9-7.1S178.3,456.1,175.7,456.1z"/>
</svg>
