<?xml version="1.0" encoding="utf-8"?>
<!-- Generator: Adobe Illustrator 24.0.2, SVG Export Plug-In . SVG Version: 6.00 Build 0)  -->
<svg version="1.1"
	 id="svg6640" xmlns:cc="http://creativecommons.org/ns#" xmlns:dc="http://purl.org/dc/elements/1.1/" xmlns:rdf="http://www.w3.org/1999/02/22-rdf-syntax-ns#" xmlns:svg="http://www.w3.org/2000/svg"
	 xmlns="http://www.w3.org/2000/svg" xmlns:xlink="http://www.w3.org/1999/xlink" x="0px" y="0px" viewBox="0 0 300 146.4"
	 style="enable-background:new 0 0 300 146.4;" xml:space="preserve">
<style type="text/css">
	.st0{clip-path:url(#SVGID_2_);}
	.st1{fill:#FFFFFF;}
	.st2{fill:none;stroke:#BDBCBC;stroke-width:0.7143;stroke-linecap:round;stroke-linejoin:round;stroke-miterlimit:19.7043;}
	.st3{fill:#E9E9E9;}
	.st4{fill:#BF2519;}
	.st5{fill:#231F20;}
</style>
<g id="layer1" transform="translate(-559.08003,-313.13162)">
	<g id="g6545" transform="matrix(3.9408543,0,0,3.9408543,-960.05773,-2371.0274)">
		<g id="g1338" transform="matrix(1.25,0,0,-1.25,-46.875,1061.1122)">
			<g>
				<defs>
					<rect id="SVGID_1_" x="226.3" y="216" width="300" height="146.4"/>
				</defs>
				<clipPath id="SVGID_2_">
					<use xlink:href="#SVGID_1_"  style="overflow:visible;"/>
				</clipPath>
				<g id="g1340" class="st0">
					<g id="g1346" transform="translate(405.717,287.389)">
						<path id="path1348" class="st1" d="M0,0c-0.4,0.3-0.5,0.3-2.8,1.1c2,0.5,2.1,0.6,2.5,0.8c0.8,0.6,1.2,1.5,1.2,2.5l0,0.1
							C0.7,6-1.4,9-2.7,9.7c-0.9,0.4-1.9,0.4-2.7-0.2c-0.4-0.2-0.4-0.3-2-2.4c-0.2,2.5-0.4,6.8-0.5,7.2l0,0.1l0,0.1
							c-0.3,1-1,1.7-2,1.9c-1.6,0.4-6-0.8-7.2-2c-0.7-0.7-1-1.7-0.7-2.6l0-0.2l0.1-0.2c0.1-0.2,0.4-0.7,2.9-4.7l0.9-1.5
							c-2.3,0.9-2.4,0.9-2.8,0.9c-0.9,0-1.8-0.4-2.3-1.3l0,0c-0.3-0.4-0.5-1.1-0.6-1.7c-0.7,1-1.8,1.8-3.5,2.1
							c-1.2,0.2-2.3,0.1-3.3-0.3c-1,0.6-2.3,0.7-3.4,0.1c-0.3-0.2-0.6-0.4-0.8-0.7v1.3l-0.1,0.8l0,0.1c-0.2,0.9-0.9,1.6-1.8,2l0,0
							c-1,0.4-2,0.3-3-0.3c-1-0.6-1.5-1.5-1.5-2.8V2.8c-0.3,0.5-0.8,1-1.3,1.4c-1.4,1-3.2,1.4-5.3,1c-1.2-0.2-2.2-0.7-3.1-1.5
							c0,0,0,0.1,0,0.1c-0.4,0.7-1.1,1.2-1.9,1.5c-1.4,0.4-3.2-0.1-4-2.6c0,0-0.1-0.4-0.3-1C-53.1,2.3-54,3.9-54,3.9
							c-0.8,1.2-2.3,1.7-3.7,1.1c-1.3-0.5-2.1-1.7-2.1-3c0-0.4,0.1-0.9,0.2-1.3l0-0.1c0,0,2.7-5.5,3.5-7.1c-1.3-0.3-2.2-1.3-2.3-2.6
							c0-0.1,0-0.2,0-0.4c0-0.8,0.3-1.6,1-2.2c1-0.9,2.4-1.2,4.2-0.8c1.9,0.4,3,1.5,3.7,3.9l1.2,3.6c0.4-1.5,1.1-2.5,1.7-3.2
							C-45.7-9-44-10-41.1-9.7c2.1,0.3,3.6,1.2,4.3,2.3l0.1-0.3c0.2-0.8,0.8-1.5,1.7-1.9c0.9-0.4,1.8-0.4,2.7,0
							c0.5,0.2,0.8,0.5,1.1,0.9v-1.1c0-1.9,1.1-2.7,1.7-3c0.9-0.4,1.9-0.5,2.8-0.1c0.8,0.4,1.5,1.1,1.7,1.9l0,0.1l0.1,0.8
							c0,0,0,0.3,0,0.3c1.1-0.1,2.3,0.1,3.4,0.6c0.5,0.2,0.9,0.5,1.2,0.9h0.8c0.4-0.2,0.9-0.4,1.4-0.4c0.5,0,1,0.1,1.4,0.4h2.2
							C-13-9-10.8-9.6-9.7-9.4c1,0.2,1.8,0.8,2.1,1.7l0,0c0.1,0.4,0.2,0.5,0.2,2.8c1.3-2,1.3-2.1,1.7-2.4C-4.9-7.8-3.9-8-3-7.6
							C-1.5-7,0.7-4.1,1-2.5c0,0.1,0,0.3,0,0.4C1-1.3,0.6-0.5,0,0z M-23.1,5.4C-23.1,5.4-23.1,5.4-23.1,5.4
							C-23.1,5.4-23.1,5.4-23.1,5.4L-23.1,5.4z M-3-7.6L-3-7.6C-3-7.6-3-7.6-3-7.6L-3-7.6"/>
					</g>
					<g id="g1350" transform="translate(405.717,287.389)">
						<path id="path1352" class="st2" d="M0,0c-0.4,0.3-0.5,0.3-2.8,1.1c2,0.5,2.1,0.6,2.5,0.8c0.8,0.6,1.2,1.5,1.2,2.5l0,0.1
							C0.7,6-1.4,9-2.7,9.7c-0.9,0.4-1.9,0.4-2.7-0.2c-0.4-0.2-0.4-0.3-2-2.4c-0.2,2.5-0.4,6.8-0.5,7.2l0,0.1l0,0.1
							c-0.3,1-1,1.7-2,1.9c-1.6,0.4-6-0.8-7.2-2c-0.7-0.7-1-1.7-0.7-2.6l0-0.2l0.1-0.2c0.1-0.2,0.4-0.7,2.9-4.7l0.9-1.5
							c-2.3,0.9-2.4,0.9-2.8,0.9c-0.9,0-1.8-0.4-2.3-1.3l0,0c-0.3-0.4-0.5-1.1-0.6-1.7c-0.7,1-1.8,1.8-3.5,2.1
							c-1.2,0.2-2.3,0.1-3.3-0.3c-1,0.6-2.3,0.7-3.4,0.1c-0.3-0.2-0.6-0.4-0.8-0.7v1.3l-0.1,0.8l0,0.1c-0.2,0.9-0.9,1.6-1.8,2l0,0
							c-1,0.4-2,0.3-3-0.3c-1-0.6-1.5-1.5-1.5-2.8V2.8c-0.3,0.5-0.8,1-1.3,1.4c-1.4,1-3.2,1.4-5.3,1c-1.2-0.2-2.2-0.7-3.1-1.5
							c0,0,0,0.1,0,0.1c-0.4,0.7-1.1,1.2-1.9,1.5c-1.4,0.4-3.2-0.1-4-2.6c0,0-0.1-0.4-0.3-1C-53.1,2.3-54,3.9-54,3.9
							c-0.8,1.2-2.3,1.7-3.7,1.1c-1.3-0.5-2.1-1.7-2.1-3c0-0.4,0.1-0.9,0.2-1.3l0-0.1c0,0,2.7-5.5,3.5-7.1c-1.3-0.3-2.2-1.3-2.3-2.6
							c0-0.1,0-0.2,0-0.4c0-0.8,0.3-1.6,1-2.2c1-0.9,2.4-1.2,4.2-0.8c1.9,0.4,3,1.5,3.7,3.9l1.2,3.6c0.4-1.5,1.1-2.5,1.7-3.2
							C-45.7-9-44-10-41.1-9.7c2.1,0.3,3.6,1.2,4.3,2.3l0.1-0.3c0.2-0.8,0.8-1.5,1.7-1.9c0.9-0.4,1.8-0.4,2.7,0
							c0.5,0.2,0.8,0.5,1.1,0.9v-1.1c0-1.9,1.1-2.7,1.7-3c0.9-0.4,1.9-0.5,2.8-0.1c0.8,0.4,1.5,1.1,1.7,1.9l0,0.1l0.1,0.8
							c0,0,0,0.3,0,0.3c1.1-0.1,2.3,0.1,3.4,0.6c0.5,0.2,0.9,0.5,1.2,0.9h0.8c0.4-0.2,0.9-0.4,1.4-0.4c0.5,0,1,0.1,1.4,0.4h2.2
							C-13-9-10.8-9.6-9.7-9.4c1,0.2,1.8,0.8,2.1,1.7l0,0c0.1,0.4,0.2,0.5,0.2,2.8c1.3-2,1.3-2.1,1.7-2.4C-4.9-7.8-3.9-8-3-7.6
							C-1.5-7,0.7-4.1,1-2.5c0,0.1,0,0.3,0,0.4C1-1.3,0.6-0.5,0,0z"/>
						<g id="g1354" transform="translate(-23.075,5.382)">
							<path id="path1356" class="st2" d="M0,0C0,0,0,0,0,0C0,0,0,0,0,0L0,0z"/>
							<g id="g1358" transform="translate(20.06,-12.978)">
								<path id="path1360" class="st2" d="M0,0L0,0C0,0,0,0,0,0L0,0z"/>
							</g>
						</g>
					</g>
				</g>
			</g>
		</g>
		<g id="g1362" transform="matrix(1.25,0,0,-1.25,438.16125,697.87345)">
			<path id="path1364" class="st3" d="M0,0c-0.4-0.6-0.5-2.4-0.4-3.6c0-0.4,0.1-0.7,0.2-0.9C0-4.8,0.2-5,0.5-5c0.2,0,0.3,0,3.6,1.1
				c0,0,1.5,0.5,1.5,0.5C6-3.3,6.2-3,6.2-2.5c0,0.4-0.2,0.8-0.6,1l-1,0.4C1,0.3,0.9,0.4,0.7,0.4C0.4,0.4,0.2,0.3,0,0"/>
		</g>
		<g id="g1366" transform="matrix(1.25,0,0,-1.25,448.16,711.61345)">
			<path id="path1368" class="st3" d="M0,0c0.1,0.2,0.1,0.3,0.1,3.8c0,0,0,1.5,0,1.6c0,0.4-0.2,0.7-0.6,0.9C-1,6.4-1.4,6.3-1.6,6
				c0,0-0.7-0.9-0.7-0.9C-4.9,2.2-5,2-5,1.8c0-0.1-0.1-0.2,0-0.3c0-0.2,0.1-0.3,0.2-0.5c0.6-0.7,3.4-1.7,4.3-1.6
				C-0.3-0.4-0.1-0.3,0,0"/>
		</g>
		<g id="g1370" transform="matrix(1.25,0,0,-1.25,455.2225,710.0922)">
			<path id="path1372" class="st3" d="M0,0c0.8,0.3,2.7,2.7,2.8,3.6c0,0.3-0.1,0.6-0.3,0.8C2.4,4.4,2.3,4.5-1,5.6
				C-1,5.6-2.5,6-2.5,6c-0.4,0.1-0.8,0-1-0.3c-0.3-0.3-0.3-0.8-0.1-1.1l0.6-1c2-3.2,2.1-3.4,2.3-3.5C-0.6-0.1-0.3-0.1,0,0"/>
		</g>
		<g id="g1374" transform="matrix(1.25,0,0,-1.25,453.07875,699.7722)">
			<path id="path1376" class="st3" d="M0,0c3.8,0.9,3.9,1,4.1,1.1c0.2,0.2,0.3,0.4,0.3,0.7c0,0,0,0,0,0C4.3,2.7,2.7,5.2,1.9,5.6
				c-0.3,0.1-0.6,0.1-0.8,0c-0.1-0.1-0.3-0.2-2.3-3c0,0-0.9-1.2-0.9-1.3c-0.2-0.3-0.2-0.7,0-1.1c0.2-0.4,0.7-0.6,1-0.5c0,0,0,0,0,0
				C-0.9-0.2-0.6-0.1,0,0"/>
		</g>
		<g id="g1378" transform="matrix(1.25,0,0,-1.25,448.33375,695.87095)">
			<path id="path1380" class="st3" d="M0,0c-0.1,1.5-0.5,8.2-0.6,8.5C-0.6,8.8-0.9,9-1.2,9c-1,0.2-4.7-0.8-5.3-1.5
				C-6.7,7.3-6.8,7-6.7,6.8c0.1-0.2,4.7-7.4,4.7-7.4c0.7-1.1,1.2-0.9,1.4-0.9C-0.5-1.4,0.1-1.3,0,0"/>
		</g>
		<g id="g1382" transform="matrix(1.25,0,0,-1.25,438.53875,696.92845)">
			<path id="path1384" class="st4" d="M0,0c-0.4-0.6-0.5-2.4-0.4-3.6c0-0.4,0.1-0.7,0.2-0.9C0-4.8,0.2-5,0.5-5c0.2,0,0.3,0,3.6,1.1
				c0,0,1.5,0.5,1.5,0.5C6-3.3,6.2-3,6.2-2.5c0,0.4-0.2,0.8-0.6,1c0,0-1,0.4-1,0.4C1,0.3,0.9,0.4,0.7,0.4C0.4,0.4,0.2,0.3,0,0"/>
		</g>
		<g id="g1386" transform="matrix(1.25,0,0,-1.25,448.53875,710.66595)">
			<path id="path1388" class="st4" d="M0,0c0.1,0.2,0.1,0.3,0.1,3.8c0,0,0,1.5,0,1.6c0,0.4-0.2,0.7-0.6,0.9C-1,6.4-1.4,6.3-1.6,6
				c0,0-0.7-0.9-0.7-0.9C-4.9,2.2-5,2-5,1.8c0-0.1-0.1-0.2,0-0.3c0-0.2,0.1-0.3,0.2-0.5c0.6-0.7,3.4-1.7,4.3-1.6
				C-0.3-0.4-0.1-0.3,0,0"/>
		</g>
		<g id="g1390" transform="matrix(1.25,0,0,-1.25,455.60375,709.1447)">
			<path id="path1392" class="st4" d="M0,0c0.8,0.3,2.7,2.7,2.8,3.6c0,0.3-0.1,0.6-0.3,0.8C2.4,4.4,2.3,4.5-1,5.6
				C-1,5.6-2.5,6-2.5,6c-0.4,0.1-0.8,0-1-0.3c-0.3-0.3-0.3-0.8-0.1-1.1l0.6-1c2-3.2,2.1-3.4,2.3-3.5C-0.6-0.1-0.3-0.1,0,0"/>
		</g>
		<g id="g1394" transform="matrix(1.25,0,0,-1.25,453.455,698.8272)">
			<path id="path1396" class="st4" d="M0,0c3.8,0.9,3.9,1,4.1,1.1c0.2,0.2,0.3,0.4,0.3,0.7c0,0,0,0,0,0C4.3,2.7,2.7,5.2,1.9,5.6
				c-0.3,0.1-0.6,0.1-0.8,0c-0.1-0.1-0.3-0.2-2.3-3c0,0-0.9-1.2-0.9-1.3c-0.2-0.3-0.2-0.7,0-1.1c0.2-0.4,0.7-0.6,1-0.5c0,0,0,0,0,0
				C-0.9-0.2-0.6-0.1,0,0"/>
		</g>
		<g id="g1398" transform="matrix(1.25,0,0,-1.25,448.7125,694.92595)">
			<path id="path1400" class="st4" d="M0,0c-0.1,1.5-0.5,8.2-0.6,8.5C-0.6,8.8-0.9,9-1.2,9c-1,0.2-4.7-0.8-5.3-1.5
				C-6.7,7.3-6.8,7-6.7,6.8c0.1-0.2,4.7-7.4,4.7-7.4c0.7-1.1,1.2-0.9,1.4-0.9C-0.5-1.4,0.1-1.3,0,0"/>
		</g>
		<g id="g1402" transform="matrix(1.25,0,0,-1.25,390.21,714.68845)">
			<path id="path1404" class="st5" d="M0,0c0.5-0.4,1.4-0.6,2.5-0.3c1,0.2,1.7,0.7,2.3,2.6l3.1,9.6c0.2,0.5,0.1,1,0,1.3
				c-0.1,0.3-0.4,0.4-0.7,0.5c-0.5,0.1-1.2,0.1-1.7-1.3L3.8,6.9c0,0-3.3,6.2-3.3,6.2c-0.2,0.4-0.8,0.7-1.4,0.5c-0.8-0.3-1.1-1-0.7-2
				c0,0,4-8.1,4-8.1c0,0,0.1-0.3,0.1-0.3c0,0,0-0.2,0-0.2c0-0.3-0.1-0.6-0.3-0.7C2,2,1.7,1.9,1.4,1.9c0,0-0.6,0-0.7,0
				c-0.6-0.1-1-0.4-1.1-1C-0.4,0.6-0.3,0.2,0,0"/>
		</g>
		<g id="g1406" transform="matrix(1.25,0,0,-1.25,409.75875,703.3197)">
			<path id="path1408" class="st5" d="M0,0h-4.3c-0.1,0.1-0.2,0.2-0.1,0.6c0.1,0.2,0.1,0.4,0.3,0.7C-4,1.4-3.9,1.5-3.9,1.6
				C-3.6,2-3.2,2.3-2.7,2.4C-1.2,2.7-0.1,2,0,0.7C0.1,0.1,0.1,0,0,0z M2.6,0.7C2.5,2.1,1.9,3.2,1.1,3.9C0.1,4.6-1.2,4.8-2.8,4.5
				c-2-0.3-3.1-1.7-3.4-4.1c-0.3-2.8,0.1-4.9,1.3-6c0.9-0.9,2.2-1.2,3.9-1C1.3-6.3,2.4-5,2.4-4.2c0,0.6-0.4,1.1-0.9,1.1
				C1.2-3,0.9-3.1,0.4-3.6c-0.8-0.7-1.7-1-2.6-0.8c-0.6,0.2-1.1,0.6-1.4,1.2c0,0-0.1,0.4-0.1,0.4c-0.1,0.4-0.1,0.7,0.1,0.9l0.1,0
				h5.1c0.5,0,0.7,0.1,0.8,0.2C2.8-1.4,2.7-0.5,2.6,0.7"/>
		</g>
		<g id="g1410" transform="matrix(1.25,0,0,-1.25,418.79625,693.2322)">
			<path id="path1412" class="st5" d="M0,0c-0.4,0.2-0.9,0.1-1.3-0.1c-0.4-0.2-0.5-0.6-0.5-1.2v-12.1c0,0,0.1-0.4,0.1-0.5
				c0.1-0.3,0.3-0.6,0.6-0.7c0.3-0.2,0.7-0.2,1.1,0c0.4,0.2,0.7,0.6,0.7,1.2v12.2c0,0-0.1,0.6-0.1,0.6C0.5-0.4,0.3-0.1,0,0"/>
		</g>
		<g id="g1414" transform="matrix(1.25,0,0,-1.25,430.81125,708.65345)">
			<path id="path1416" class="st5" d="M0,0c-1.7,0-2,1.5-2,2.6c0,0,0,0.7,0,0.7s0,0.5,0,0.5c0.1,2,0.5,2.7,1.5,2.9
				c0.7,0.2,1.2,0.1,1.6-0.2C1.7,6,2,5,2,3.3C2,1.3,1.6,0,0,0z M0.1,8.9C-1,9.1-2,9-2.9,8.3c0,0-0.1-0.1-0.1-0.1l-0.1,0l-0.3-0.1
				l-0.1,0.3l-0.1,0.1l0,0.1l0,0c0,0-0.1,0.1-0.1,0.1c-0.3,0.4-1,0.6-1.6,0.2c-0.3-0.2-0.5-0.4-0.5-1.2V-4.3c0-0.7,0.2-1.1,0.7-1.3
				c0.4-0.2,0.8-0.2,1.2,0c0.3,0.1,0.5,0.4,0.6,0.7l0.1,0.5v2.1l0,0.3l0,0.1l0,0l0.1,0.4l0.4-0.2c0,0,0.1-0.1,0.1-0.1l0.1-0.1
				c0,0,0.1-0.1,0.1-0.1C-2.4-2-2.2-2-2.2-2c1-0.5,2.3-0.4,3.4,0.1c1.4,0.7,2,2,2.2,4.1C3.7,6.4,2.7,8.4,0.1,8.9"/>
		</g>
		<g id="g1418" transform="matrix(1.25,0,0,-1.25,437.5,709.8197)">
			<path id="path1420" class="st5" d="M0,0h0.1c0.1,0,0.2,0,0.2,0.1c0,0.1-0.1,0.1-0.2,0.1H0V0z M-0.1,0.4h0.3
				c0.2,0,0.3-0.1,0.3-0.2c0-0.1-0.1-0.2-0.2-0.2l0.2-0.4H0.4L0.1-0.1H0v-0.3h-0.1L-0.1,0.4z M0.1-0.6c0.3,0,0.6,0.3,0.6,0.6
				c0,0.3-0.3,0.6-0.6,0.6c-0.3,0-0.6-0.3-0.6-0.6C-0.4-0.4-0.2-0.6,0.1-0.6z M0.1,0.7c0.4,0,0.7-0.3,0.7-0.7c0-0.4-0.3-0.7-0.7-0.7
				c-0.4,0-0.7,0.3-0.7,0.7C-0.6,0.4-0.2,0.7,0.1,0.7"/>
		</g>
	</g>
</g>
</svg>
